<svg width="24" height="24" viewBox="0 0 24 24" fill="none" xmlns="http://www.w3.org/2000/svg">
<g clip-path="url(#clip0_9_259)">
<path d="M9.3551 17.2989C9.3551 17.3776 9.26687 17.4403 9.15607 17.4403C9.02963 17.4521 8.94141 17.3894 8.94141 17.2989C8.94141 17.2202 9.02963 17.1575 9.14044 17.1575C9.25541 17.1457 9.3551 17.2084 9.3551 17.2989ZM8.16369 17.1222C8.13695 17.2009 8.21336 17.2911 8.32834 17.3146C8.42803 17.3538 8.543 17.3146 8.56592 17.2358C8.58885 17.1571 8.51625 17.067 8.40128 17.0317C8.30159 17.0043 8.19044 17.0435 8.16369 17.1222ZM9.85702 17.0552C9.74587 17.0826 9.66945 17.1575 9.68091 17.2476C9.69238 17.3263 9.79207 17.3773 9.90704 17.3498C10.0182 17.3224 10.0946 17.2476 10.0831 17.1692C10.0717 17.0944 9.96817 17.0435 9.85702 17.0552ZM12.3774 2C7.06433 2 3 6.13716 3 11.5864C3 15.9434 5.67389 19.6719 9.493 20.9843C9.98346 21.0748 10.1557 20.7642 10.1557 20.5091C10.1557 20.254 10.1443 18.922 10.1443 18.0969C10.1443 18.0969 7.46274 18.6861 6.89969 16.9263C6.89969 16.9263 6.46307 15.783 5.83472 15.4884C5.83472 15.4884 4.95766 14.8717 5.89585 14.8835C5.89585 14.8835 6.84967 14.9622 7.37452 15.897C8.21336 17.4136 9.61943 16.9776 10.1672 16.7182C10.2554 16.0894 10.5041 15.6534 10.7803 15.394C8.63887 15.1503 6.47835 14.8322 6.47835 11.0527C6.47835 9.97221 6.76943 9.43 7.3825 8.73851C7.28282 8.48308 6.95735 7.43035 7.48219 6.07089C8.28283 5.81546 10.1252 7.13181 10.1252 7.13181C10.8914 6.91165 11.715 6.798 12.5309 6.798C13.3468 6.798 14.1704 6.91201 14.9367 7.13181C14.9367 7.13181 16.7793 5.8119 17.5796 6.07089C18.1045 7.43427 17.7787 8.48308 17.6793 8.73851C18.2924 9.43391 18.6675 9.97613 18.6675 11.0527C18.6675 14.844 16.4112 15.1464 14.2701 15.394C14.6227 15.7043 14.9214 16.2936 14.9214 17.217C14.9214 18.5411 14.9099 20.1792 14.9099 20.5016C14.9099 20.757 15.086 21.0673 15.5727 20.9768C19.4032 19.6726 22.0003 15.9441 22.0003 11.5871C22 6.13716 17.6904 2 12.3774 2ZM6.72324 15.5504C6.67357 15.5896 6.68503 15.6801 6.74998 15.7545C6.81112 15.8172 6.89934 15.845 6.94901 15.7937C6.99868 15.7545 6.98722 15.6641 6.92227 15.5896C6.86113 15.5269 6.77291 15.4991 6.72324 15.5504ZM6.30954 15.2323C6.2828 15.2832 6.32101 15.3463 6.39777 15.3855C6.4589 15.4247 6.53567 15.4129 6.56241 15.358C6.58916 15.3071 6.55095 15.244 6.47419 15.2048C6.39742 15.1813 6.33629 15.1931 6.30954 15.2323ZM7.55097 16.6309C7.48984 16.6819 7.51276 16.7998 7.60064 16.8746C7.68887 16.9651 7.79967 16.9768 7.84969 16.9138C7.89936 16.8628 7.87644 16.7449 7.80002 16.6701C7.71561 16.5796 7.60099 16.5679 7.55097 16.6309ZM7.114 16.0534C7.05287 16.0926 7.05287 16.1949 7.114 16.2854C7.17514 16.3758 7.27865 16.415 7.32867 16.3758C7.3898 16.3249 7.3898 16.2227 7.32867 16.1322C7.27517 16.0417 7.17548 16.0025 7.114 16.0534Z" fill="#545454"/>
</g>
<defs>
<clipPath id="clip0_9_259">
<rect width="19" height="19" fill="white" transform="translate(3 2)"/>
</clipPath>
</defs>
</svg>
