<svg width="17" height="17" viewBox="0 0 17 17" fill="none" xmlns="http://www.w3.org/2000/svg">
<path d="M0.674023 0.552082C1.08756 0.191978 1.64604 0 2.26667 0C3.50792 0 4.46793 0.880904 4.52559 1.99528C4.52622 2.00558 4.52659 2.01589 4.52669 2.02621C4.52669 3.15763 3.55471 4.09136 2.26667 4.09136C2.2079 4.0905 2.14964 4.08006 2.09401 4.06044L2.0918 4.05929C0.924395 3.97485 0.00664063 3.12121 0.00664063 2.02621C0.00664063 1.45015 0.260489 0.912185 0.674023 0.552082Z" fill="#545454"/>
<path d="M0.16599 4.85646C0.272257 4.74649 0.416382 4.68469 0.566667 4.68468H3.96667C4.11695 4.68469 4.26108 4.74649 4.36734 4.85646C4.47361 4.96644 4.53332 5.11559 4.53333 5.27112V16.4136C4.53332 16.5691 4.47361 16.7182 4.36734 16.8282C4.26108 16.9382 4.11695 17 3.96667 17H0.566667C0.416382 17 0.272257 16.9382 0.16599 16.8282C0.0597223 16.7182 1.50262e-05 16.5691 0 16.4136V5.27112C1.50262e-05 5.11559 0.0597223 4.96644 0.16599 4.85646Z" fill="#545454"/>
<path d="M5.26599 4.85646C5.37226 4.74649 5.51638 4.68469 5.66667 4.68468H9.06667C9.21695 4.68469 9.36108 4.74649 9.46734 4.85646C9.57361 4.96644 9.63332 5.11559 9.63333 5.27112V5.51967C10.2628 5.09806 11.1693 4.68468 12.3604 4.68468C13.6137 4.68468 14.7988 5.14213 15.6508 6.0729C16.5029 7.00367 17 8.37938 17 10.1162V16.4136C17 16.5691 16.9403 16.7182 16.834 16.8282C16.7277 16.9382 16.5836 17 16.4333 17H13.0333C12.883 17 12.7389 16.9382 12.6327 16.8282C12.5264 16.7182 12.4667 16.5691 12.4667 16.4136V10.5491C12.4667 10.0604 12.3417 9.59434 12.118 9.28345C11.8943 8.97256 11.5986 8.77453 11.04 8.76459C10.4983 8.75463 10.2134 8.94481 9.9875 9.26169C9.76162 9.57857 9.63333 10.0626 9.63333 10.5491V16.4136C9.63332 16.5691 9.57361 16.7182 9.46734 16.8282C9.36108 16.9382 9.21695 17 9.06667 17H5.66667C5.51638 17 5.37226 16.9382 5.26599 16.8282C5.15972 16.7182 5.10002 16.5691 5.1 16.4136V5.27112C5.10002 5.11559 5.15972 4.96644 5.26599 4.85646Z" fill="#545454"/>
</svg>
